<svg width="40" height="40" fill="none" xmlns="http://www.w3.org/2000/svg"><path d="M0 20C0 8.954 8.954 0 20 0s20 8.954 20 20-8.954 20-20 20S0 31.046 0 20Z" fill="#3F3F45"/><path d="M20.5 6.5c3.957 0 7.16 3.066 7.16 6.841 0 3.604-3.203 6.659-7.16 6.659-3.957 0-7.16-3.066-7.16-6.659 0-3.775 3.203-6.841 7.16-6.841Zm5.846 14.22c-1.507.722-3.766 1.26-6.037 1.26-2.45 0-4.34-.538-5.846-1.442C11.26 22.7 9 26.304 9 28.272 9 31.52 14.284 33.5 20.5 33.5c6.407 0 11.5-1.98 11.5-5.217 0-1.98-2.26-5.583-5.654-7.562Z" fill="#000"/></svg>