<svg width="40" height="40" fill="none" xmlns="http://www.w3.org/2000/svg"><path d="M0 20C0 8.954 8.954 0 20 0s20 8.954 20 20-8.954 20-20 20S0 31.046 0 20Z" fill="#3F3F45"/><path d="m31.287 25.666-5.469-2.344a1.171 1.171 0 0 0-1.367.337l-2.422 2.959a18.099 18.099 0 0 1-8.652-8.652l2.96-2.422a1.169 1.169 0 0 0 .336-1.367l-2.344-5.469a1.18 1.18 0 0 0-1.343-.679L7.908 9.201A1.172 1.172 0 0 0 7 10.343C7 22.868 17.151 33 29.657 33a1.172 1.172 0 0 0 1.142-.908l1.172-5.078a1.186 1.186 0 0 0-.684-1.348Z" fill="#000"/></svg>