<svg width="40" height="40" fill="none" xmlns="http://www.w3.org/2000/svg"><path d="M0 20C0 8.954 8.954 0 20 0s20 8.954 20 20-8.954 20-20 20S0 31.046 0 20Z" fill="#3F3F45"/><path fill-rule="evenodd" clip-rule="evenodd" d="M13.333 14.167A.833.833 0 0 0 12.5 15v10c0 .46.373.833.833.833h13.334c.46 0 .833-.373.833-.833V15a.833.833 0 0 0-.833-.833H13.333Zm-2.5.833a2.5 2.5 0 0 1 2.5-2.5h13.334a2.5 2.5 0 0 1 2.5 2.5v10a2.5 2.5 0 0 1-2.5 2.5H13.333a2.5 2.5 0 0 1-2.5-2.5V15Z" fill="#A1A1A9"/><path fill-rule="evenodd" clip-rule="evenodd" d="M10.963 15.386a.833.833 0 0 1 1.15-.256l7.473 4.748a.784.784 0 0 0 .828 0h.002l7.47-4.748a.833.833 0 1 1 .894 1.407L21.3 21.29a2.45 2.45 0 0 1-2.6 0l-.005-.003-7.475-4.75a.833.833 0 0 1-.257-1.15Z" fill="#A1A1A9"/></svg>