<svg width="40" height="40" fill="none" xmlns="http://www.w3.org/2000/svg"><path d="M0 20C0 8.954 8.954 0 20 0s20 8.954 20 20-8.954 20-20 20S0 31.046 0 20Z" fill="#3F3F45"/><path fill-rule="evenodd" clip-rule="evenodd" d="M20 12.5a5.834 5.834 0 0 0-5.833 5.833c0 2.171 1.475 4.468 3.123 6.322A25.304 25.304 0 0 0 20 27.267a25.304 25.304 0 0 0 2.71-2.612c1.648-1.854 3.123-4.15 3.123-6.322A5.833 5.833 0 0 0 20 12.5Zm0 15.833-.5.667-.003-.002-.004-.004-.017-.012a24.686 24.686 0 0 1-1.066-.88 26.97 26.97 0 0 1-2.366-2.34c-1.686-1.897-3.544-4.6-3.544-7.429a7.5 7.5 0 0 1 15 0c0 2.83-1.858 5.532-3.544 7.429a26.97 26.97 0 0 1-3.37 3.173l-.062.047-.017.012-.005.004-.001.001S20.5 29 20 28.334Zm0 0 .5.667a.833.833 0 0 1-1 0l.5-.667Z" fill="#A1A1A9"/><path fill-rule="evenodd" clip-rule="evenodd" d="M20 16.667A1.667 1.667 0 1 0 20 20a1.667 1.667 0 0 0 0-3.333Zm-3.333 1.666a3.333 3.333 0 1 1 6.666 0 3.333 3.333 0 0 1-6.666 0Z" fill="#A1A1A9"/></svg>