<svg width="16" height="16" fill="none" xmlns="http://www.w3.org/2000/svg"><path fill-rule="evenodd" clip-rule="evenodd" d="M8 2a4.667 4.667 0 0 0-4.667 4.667c0 1.736 1.18 3.574 2.499 5.057A20.226 20.226 0 0 0 8 13.814a20.227 20.227 0 0 0 2.168-2.09c1.318-1.483 2.499-3.32 2.499-5.057A4.667 4.667 0 0 0 8 2Zm0 12.667-.4.533-.002-.002-.004-.002-.013-.01-.05-.038-.178-.141a21.582 21.582 0 0 1-2.518-2.397C3.486 11.092 2 8.93 2 6.667a6 6 0 1 1 12 0c0 2.263-1.486 4.425-2.835 5.943a21.584 21.584 0 0 1-2.697 2.538l-.049.037-.013.01-.004.003-.001.001S8.4 15.2 8 14.668Zm0 0 .4.533a.667.667 0 0 1-.8 0l.4-.533Z" fill="#A1A1A9"/><path fill-rule="evenodd" clip-rule="evenodd" d="M8 5.333A1.333 1.333 0 1 0 8 8a1.333 1.333 0 0 0 0-2.667ZM5.333 6.667a2.667 2.667 0 1 1 5.334 0 2.667 2.667 0 0 1-5.334 0Z" fill="#A1A1A9"/></svg>