<svg width="39" height="32" fill="none" xmlns="http://www.w3.org/2000/svg"><g clip-path="url('#clip0_213_5999')"><path d="M0 0h39v32H0V0Z" fill="#012169"/><path d="m4.57 0 14.87 12.067L34.246 0H39v4.133L24.375 16.067 39 27.933V32h-4.875L19.5 20.067 4.936 32H0v-4l14.564-11.867L0 4.267V0h4.57Z" fill="#fff"/><path d="M25.837 18.733 39 29.333V32L22.486 18.733h3.351Zm-11.212 1.334.366 2.333L3.29 32H0l14.625-11.933ZM39 0v.2L23.827 12.733l.121-2.933L35.953 0H39ZM0 0l14.564 11.733h-3.656L0 2.8V0Z" fill="#C8102E"/><path d="M14.686 0v32h9.75V0h-9.75ZM0 10.667v10.666h39V10.667H0Z" fill="#fff"/><path d="M0 12.867v6.4h39v-6.4H0ZM16.636 0v32h5.85V0h-5.85Z" fill="#C8102E"/></g><defs><clipPath id="clip0_213_5999"><rect width="39" height="32" rx="6" fill="#fff"/></clipPath></defs></svg>