<svg width="48" height="48" fill="none" xmlns="http://www.w3.org/2000/svg"><path d="M15.255 10.757C12.118 10.757 10 8.574 10 5.338 10 2.426 12.431 0 15.726 0 19.332 0 22 2.912 22 7.36 22 17.47 14.627 21.515 10 22v-4.448c3.137-.567 6.667-3.721 6.823-7.2-.156.082-.784.405-1.568.405ZM31.255 10.757C28.118 10.757 26 8.574 26 5.338 26 2.426 28.431 0 31.726 0 35.333 0 38 2.912 38 7.36 38 17.47 30.628 21.515 26 22v-4.448c3.137-.567 6.667-3.721 6.824-7.2-.157.082-.785.405-1.57.405Z" fill="#A1A1A9"/></svg>